<?xml version="1.0" standalone="yes"?>
<svg xmlns="http://www.w3.org/2000/svg" width="834" height="834">
<path style="fill:#1b3b2b; stroke:none;" d="M0 0L0 834L834 834L834 0L0 0z"/>
<path style="fill:#faf8eb; stroke:none;" d="M426 260C420.012 258.333 413.429 250.347 410.444 244.906C409.079 242.42 408.592 238.602 406.454 236.657C404.347 234.739 400.741 236.195 398.156 234.656C384.117 226.295 372.203 218.972 356 215.49C350.211 214.246 344.76 211.403 338.986 210.444C337.12 210.134 333.548 209.479 332.407 211.584C330.393 215.301 338.995 217.371 341.17 218.339C348.734 221.704 357.279 221.931 364.91 224.701C368.096 225.858 370.862 228.416 373.834 230.052C380.3 233.611 388.063 236.409 393.575 241.364C397.924 245.274 402.981 250.216 406.278 255.039C408.139 257.762 408.896 260.923 411.393 263.232C416.166 267.643 423.548 268.68 428.402 273.546C432.712 277.866 435.929 285.647 438.93 291C445.671 303.026 452.498 314.311 455.37 328.015C456.741 334.558 455.582 341.345 456.054 347.961C456.488 354.038 458.2 360.936 459.325 367C461.761 380.13 467.322 391.278 466.985 405C466.392 429.136 459.894 452.523 451.788 475C449.95 480.096 449.124 485.604 446.91 490.576C441.839 501.959 434.497 512.114 428.704 523.089C425.946 528.316 424.192 533.767 421.079 538.92C413.503 551.462 401.591 561.216 390.546 570.6C386.182 574.307 377.844 578.6 376 584C366.786 585.015 358.706 592.036 350.715 596.201C332.467 605.711 312.423 614.742 293 621.56C281.579 625.569 270.569 622.298 259 622.015C251.435 621.829 243.558 622.757 236.039 621.871C231.911 621.385 228.232 619.388 224 619.089C217.69 618.644 211.322 619.388 205.015 618.946C202.183 618.748 199.682 617.554 196.91 617.089C184.879 615.074 173.199 613.703 162.171 607.88C144.327 598.457 133.091 578.938 123.812 562.039C121.099 557.1 117.61 552.098 115.47 546.911C113.295 541.639 112.908 535.688 111.755 530.17C110.355 523.463 108.228 516.659 106.522 510C104.362 501.573 101.048 493.771 100.171 485C99.3439 476.733 100.324 468.295 99.9606 460C99.4998 449.477 97.8883 438.606 99.1289 428.039C100.886 413.077 104.251 397.915 106.675 383C110.336 360.478 114.27 339.985 126.038 320C129.15 314.715 130.446 307.2 136 304C137.311 298.47 141.158 294.51 144.445 290C152.836 278.488 163.345 268.333 173.955 258.897C179.943 253.571 191.329 247.524 192 239C203.386 237.026 213.64 226.968 222.754 220.37C226.151 217.91 230.737 217.532 233 214C239.087 215.126 243.099 213.602 249 212.467C253.005 211.696 256.484 212.311 258 208C260.297 208.674 260.774 208.965 262 211C282.858 207.125 303.157 212.355 324 214C322.846 211.751 322.249 211.154 320 210C322.106 209.356 323.795 209.094 326 209C322.295 204.623 318.308 205.281 313 204.576C302.812 203.221 293.315 202 283 202C258.898 202 232.167 204.489 211.075 217.399C193.199 228.341 178.232 243.806 162.829 257.714C144.127 274.602 129.968 293.823 118.299 315.961C116.446 319.477 113.684 322.431 112.09 326.09C101.826 349.647 98.4861 375.789 94.8858 400.961C91.7073 423.183 88.5383 446.348 90.0895 469C90.5815 476.185 92.6906 482.936 93.6998 490C94.3156 494.31 93.6277 498.701 94.3248 503C95.5727 510.695 98.6561 517.724 100.541 525.17C105.143 543.35 108.651 561.063 119.89 576.911C133.506 596.11 151.07 617.239 175 623.505C178.919 624.531 183.037 623.576 187 624.224C190.126 624.735 192.839 626.475 196 626.867C204.58 627.933 213.415 627.269 222 628.286C230.336 629.272 238.718 629.199 247 630.129C259.599 631.543 273.176 633.721 286 631.787C301.678 629.422 315.073 620.768 329.285 614.725C342.024 609.308 353.877 603.409 366 596.63C371.745 593.417 378.081 591.192 383.482 587.384C386.81 585.039 389.35 581.691 392.424 579.036C397.011 575.074 402.562 572.065 406.961 568.123C411.163 564.356 414.113 559.622 417.722 555.441C421.388 551.194 425.879 547.972 429.162 543.271C435.181 534.651 438.886 523.423 443.707 514.039C446.828 507.963 449.407 501.659 452.51 495.572C454.374 491.916 457.167 488.702 458.728 484.91C461.649 477.817 462.508 470.219 464.545 463C470.263 442.737 475.852 422.418 475.856 401C475.857 397.883 474.48 395.065 474.129 392C472.553 378.232 468.885 364.701 466.464 351C464.214 338.267 466.538 325.531 461.871 313C458.481 303.896 452.344 297.808 447.115 289.975C443.036 283.865 440.227 276.932 435.841 271.015C432.877 267.016 428.329 264.326 426 260M687 280C682.578 280.003 678.377 280.447 674 281C674.173 284.17 674.356 286.136 677 288L677 282C685.034 282.619 684.317 288.507 683.425 295C682.387 302.565 681.267 310.372 680.989 318C680.161 340.762 678.317 362.832 690.07 383.259C691.53 385.796 691.68 389.006 693.815 391.16C697.881 395.263 706.537 398.629 712 400C712 406.987 710.919 414.967 712.263 421.83C712.827 424.711 714.633 427.17 715.387 430.004C716.324 433.524 716.039 437.39 715.996 441C715.825 455.365 713.407 469.558 714.039 484C714.323 490.488 716.899 496.602 716.995 503.001C717.114 510.84 714.222 518.066 715.184 526C716.106 533.597 721.167 540.686 728.286 543.782C731.94 545.371 738.977 545.195 740.606 540.852C743.225 533.868 741.836 525.288 742.015 518C742.228 509.303 743.344 500.765 742.961 492C742.654 484.992 741.346 478.008 741.039 471C740.179 451.341 740.821 431.657 739.961 412C738.405 376.471 734.34 340.487 726.13 306C722.308 289.943 727.419 273.004 722.909 257C721.17 250.83 720.144 245.462 714.711 241.344C708.94 236.97 698.62 239.186 694.599 245.019C692.231 248.453 692.169 252.084 691.254 256C689.39 263.977 688.027 271.875 687 280z"/>
<path style="fill:#1b3b2b; stroke:none;" d="M722 392C722.438 402.191 722.184 412.851 723.17 423C723.625 427.685 725.902 432.325 725.776 437C725.502 447.214 725.61 457.789 724.911 468C724.402 475.427 722.737 483.559 723.394 490.985C723.711 494.569 726.232 497.459 726.476 501.015C726.875 506.828 724.166 513.076 724.054 519C723.95 524.495 726.211 528.971 728 534L732 534C732 525.837 733.9 518.059 733.996 510C734.087 502.403 734.465 494.578 733.91 487C733.562 482.252 732.061 477.807 732.004 473C731.373 420.211 730.104 366.783 719.485 315C718.143 308.456 715.519 301.635 715.054 294.985C714.282 283.95 717.156 273.027 715.572 262C714.881 257.19 711.729 245.994 704.344 248.661C700.714 249.972 701.155 254.954 700.701 258C699.524 265.893 697.468 274.34 695.279 282C690.391 299.107 689 318.232 689 336C689 345.648 688.802 354.631 691.424 364C695.473 378.464 706.296 391.281 722 392z"/>
<path style="fill:#faf8eb; stroke:none;" d="M572 333L570 333C567.618 327.682 564.302 322.788 563.259 316.911C562.171 310.774 564.625 305.826 564.941 299.961C565.164 295.823 563.493 292.043 563 288L560 288C559.508 280.669 553.776 275.884 552 269L544 269C542.757 271.818 540.405 274.101 539.558 277.093C537.306 285.046 538 294.793 538 303C538 308.202 537.382 313.869 538.339 319C539.426 324.82 542.692 330.102 543.674 336C545.016 344.05 542.271 353.006 544.835 360.83C546.736 366.629 549.268 372.411 552.539 377.579C554.188 380.185 556.812 382.437 558.026 385.285C559.228 388.102 557.898 391.075 558.303 393.996C558.76 397.291 561.044 399.874 561.751 403.09C563.882 412.779 563 423.152 563 433C563 442.006 563.821 451.058 563.821 460C563.821 470.635 562.57 481.287 563.039 492C563.773 508.75 566.976 525.583 570.066 542C571.049 547.225 571.101 552.643 572.248 557.83C572.95 561.004 574.49 563.742 575 567L584 567C585.883 562.766 589.752 560.101 591.869 555.96C596.251 547.387 597.789 535.494 598.812 526C599.211 522.296 598.201 518.685 598.039 515C597.792 509.348 598.367 503.638 597.83 498C597.129 490.631 595.579 483.449 596.089 476C596.984 462.943 600.016 450.059 600.911 437C601.565 427.443 599.572 418.356 598.465 409C597.986 404.954 598.752 401.111 598 397C608.382 396.209 617.396 386.059 621.179 376.999C624.089 370.032 628.029 363.515 629.384 356C630.956 347.282 629.904 337.579 632.684 329.09C638.003 312.841 648.388 294.745 644.722 277.015C644.138 274.19 642.331 272.192 640.826 269.83C639.208 267.293 638.523 261.949 635.687 260.608C630.921 258.355 626.849 263.723 624.37 266.92C617.167 276.205 613.022 287.52 610.803 299C608.918 308.755 603.973 318.238 603 328L600 328C600 323.047 599.597 317.895 600.464 313C601.619 306.479 604.194 300.685 604.83 294C605.411 287.902 604.532 282.045 604.089 276C603.573 268.976 600.653 258.435 591.039 260.354C583.706 261.818 584.143 272.32 583.066 278C581.235 287.65 580.361 297.358 578.671 307C577.147 315.698 573.978 324.353 572 333z"/>
<path style="fill:#1b3b2b; stroke:none;" d="M590 270C590 285.706 586.522 300.61 583.449 316C582.347 321.521 582.597 327.558 580.892 332.91C578.464 340.529 573.686 346.919 566 349C563.97 338.771 557.241 329.449 555.274 319C553.951 311.973 556.356 305.014 555.942 298.039C555.676 293.562 553.156 289.312 552 285L548 285C547.999 294.921 545.759 305.094 547.304 315C548.67 323.754 554.362 332.095 554.945 341.015C555.481 349.201 551.591 355.162 555.354 363.085C556.264 365 557.067 367.472 559.273 368.227C561.238 368.899 563.977 368.153 566 368C566 372.812 564.818 378.254 565.43 382.961C565.874 386.38 568.547 388.779 569.491 392.015C570.879 396.774 571.356 403.032 571.829 408C572.743 417.608 570.999 428.237 571 438C571.001 446.097 572.788 453.948 572.985 462C573.61 487.516 572.024 512.258 578.728 537.004C580.245 542.605 580.276 548.903 583 554C587.224 550.13 587.675 545.421 588.424 540C589.046 535.496 590.572 530.511 590.526 526C590.462 519.691 588.317 513.348 588.039 507C587.6 496.973 584.96 485.992 586.129 476.039C587.967 460.383 592.187 446.015 591.996 430C591.913 422.972 592.18 413.797 590.529 407C589.245 401.71 586.29 397.59 586 392C594.635 390.222 604.477 386.606 610.366 379.621C614.266 374.995 614.985 368.581 616.598 363C618.076 357.886 620.539 353.298 621.54 348C623.102 339.734 622.495 330.908 625.63 323C627.312 318.757 630.047 314.996 631.623 310.714C633.768 304.884 634.318 299.041 635.324 293C636.847 283.861 638.364 277.562 632 270C624.325 273.136 622.142 281.695 620.076 289C616.678 301.015 611.895 312.9 609.018 325.015C608.013 329.247 606.104 344.173 600.05 343.712C593.637 343.224 592.003 331.735 591.428 327C590.537 319.664 593.399 313.727 594.737 306.83C596.059 300.014 595.433 291.976 595.911 285C596.33 278.878 597.464 271.19 590 270z"/>
<path style="fill:#faf8eb; stroke:none;" d="M212 480C213.525 489.26 224.566 494.75 227 504C233.857 505.086 237.374 511.537 242.093 516C248.569 522.125 259.161 528.912 268.039 530.661C284.512 533.904 297.798 529.397 313.285 524.713C319.504 522.832 325.97 521.645 331.961 518.919C334.543 517.744 336.544 515.649 339.09 514.417C343.3 512.379 348.674 514.294 352.544 511.821C355.198 510.125 356.833 506.805 358.99 504.553C361.777 501.645 365.266 499.51 368.003 496.544C376.07 487.803 382.538 477.914 389.239 468.246C392.191 463.988 392.245 458.707 397 456C398.505 449.941 401.889 444.268 402.79 438C405.46 419.431 399.005 400.483 391.771 384C389.024 377.741 387.358 372.377 383.373 366.715C376.9 357.517 380.498 345.871 375.232 336.428C373.248 332.87 369.697 330.508 367.005 327.536C362.562 322.631 358.571 315.744 352.625 312.434C349.38 310.627 345.401 312.307 342.325 310.322C339.054 308.211 336.751 304.141 333.917 301.464C329.258 297.063 322.543 292.568 316.91 289.558C309.409 285.549 298.244 288.687 290 287.714C274.808 285.922 263.13 289.888 249 294.827C245.376 296.094 241.447 296.418 238.054 298.343C234.961 300.099 233.503 303.343 230.661 305.367C222.215 311.379 212.784 318.058 206.517 326.514C201.534 333.237 199.662 340.553 196.448 348C194.317 352.936 190.941 357.897 189.554 363.09C188.117 368.469 189.288 374.492 188.91 380C187.925 394.386 187.636 407.974 190.78 422.09C194.266 437.74 195.197 452.363 202.448 467C204.65 471.445 207.125 478.309 212 480z"/>
<path style="fill:#1b3b2b; stroke:none;" d="M354 326C354.327 328.738 355.69 332.232 355.106 334.958C354.521 337.691 351.617 338.592 349.63 336.56C346.697 333.561 348.648 329.36 344 328C343.35 323.537 340.579 321.455 337.656 318.24C332.291 312.34 328.108 307.612 321.299 303.287C318.724 301.651 316.811 299.146 313.91 298.029C304.429 294.379 291.955 296 282 296C276.81 296 271.069 295.328 266 296.609C255.809 299.183 246.705 304.669 237.83 310.076C232.106 313.563 227.823 317.682 222.711 321.897C220.542 323.685 218.045 324.843 216.326 327.13C207.248 339.206 199.512 355.988 197.301 371C194.484 390.124 197.394 411.211 201 430C202.891 439.851 202.789 448.974 207.036 458.385C208.956 462.639 211.922 466.083 214.198 470.09C215.799 472.909 216.209 476.067 218.185 478.711C221.214 482.762 225.441 485.502 228.706 489.3C234.221 495.715 239.893 501.559 245.691 507.626C247.405 509.419 248.153 512.095 250.313 513.428C254.448 515.98 260.383 515.959 264.896 517.985C267.85 519.311 269.776 521.954 273.043 522.656C291.868 526.703 313.624 518.167 330.17 510.092C340.219 505.187 350.354 502.751 358.715 494.7C367.48 486.259 373.389 477.042 380.25 467.114C386.039 458.737 392.91 449.396 394.671 439C395.406 434.656 394.121 430.345 394.015 426C393.836 418.732 394.221 410.124 392.292 403.09C388.038 387.584 378.936 373.43 371.224 359.576C368.022 353.825 369.538 347.247 367.49 341.325C366.52 338.52 363.893 336.438 362.325 333.964C359.767 329.928 359.146 326.756 354 326z"/>
<path style="fill:#f6f8e8; stroke:none;" d="M533 344C532.499 346.686 532.117 349.27 532 352C534.966 349.74 535.146 346.948 533 344z"/>
</svg>
